<?xml version="1.0" encoding="utf-8"?>
<!-- Generator: Adobe Illustrator 16.0.0, SVG Export Plug-In . SVG Version: 6.00 Build 0)  -->
<!DOCTYPE svg PUBLIC "-//W3C//DTD SVG 1.1//EN" "http://www.w3.org/Graphics/SVG/1.1/DTD/svg11.dtd">
<svg version="1.1" id="Layer_1" xmlns="http://www.w3.org/2000/svg" xmlns:xlink="http://www.w3.org/1999/xlink" x="0px" y="0px"
	 width="288px" height="320.004px" viewBox="0 0 288 320.004" enable-background="new 0 0 288 320.004" xml:space="preserve">
<path opacity="0.05" enable-background="new    " d="M152.646,0c0.154,0.391,0.309,0.782,0.461,1.174
	C160.786,20.899,165,42.356,165,64.797c0,93.386-72.963,169.732-164.996,175.146V0"/>
<path opacity="0.1" fill="#FFFFFF" enable-background="new    " d="M288,0h-86.676c0.364,0.397,0.724,0.798,1.083,1.2
	c18.091,20.2,30.685,43.421,36.306,69.04C262.105,176.848,156.27,286.032,0.004,320.004C160.643,313.704,288,224.878,288,116.23
	C288,90.121,288,0,288,0z"/>
<linearGradient id="SVGID_1_" gradientUnits="userSpaceOnUse" x1="144.2671" y1="163.3711" x2="144.2671" y2="451.4334" gradientTransform="matrix(-1 0 0 -1 288.2695 320.374)">
	<stop  offset="0.1475" style="stop-color:#FDFDFE;stop-opacity:0"/>
	<stop  offset="1" style="stop-color:#FDFDFE"/>
</linearGradient>
<rect x="0.004" fill="url(#SVGID_1_)" width="287.996" height="320.004"/>
</svg>
